<svg width="27" height="27" viewBox="0 0 27 27" fill="none" xmlns="http://www.w3.org/2000/svg">
<g clip-path="url(#clip0_300_1704)">
<path d="M0.854597 25.0868C0.641514 25.0868 0.46875 25.2596 0.46875 25.4727C0.46875 25.6857 0.641514 25.8585 0.854597 25.8585C6.72931 25.8585 19.6516 25.8585 25.5488 25.8585C25.7619 25.8585 25.9346 25.6857 25.9346 25.4727C25.9346 25.2596 25.7619 25.0868 25.5488 25.0868H25.1309V9.85568H25.5488C25.7619 9.85568 25.9346 9.68291 25.9346 9.46983V7.15475C25.9346 6.94167 25.7619 6.7689 25.5488 6.7689H18.3183V5.28788H19.7144C20.14 5.28788 20.486 4.94178 20.486 4.51618V1.35763C20.486 0.932031 20.14 0.585938 19.7144 0.585938H6.68902C6.26342 0.585938 5.91733 0.932031 5.91733 1.35763V4.51618C5.91733 4.94178 6.26342 5.28788 6.68902 5.28788H8.08508V6.7689H0.854597C0.641514 6.7689 0.46875 6.94167 0.46875 7.15475V9.46983C0.46875 9.68291 0.641514 9.85568 0.854597 9.85568H1.27247V25.0868H0.854597ZM12.8158 25.0868H10.6937V17.3802H12.8158V25.0868ZM15.7097 25.0868H13.5875V17.3802H15.7097V25.0868ZM24.3592 25.0868H16.4814V17.3802C16.4814 16.9546 16.1353 16.6086 15.7097 16.6086H10.6937C9.99716 16.6086 9.92199 17.0519 9.92199 17.2425V25.0868H2.04416V9.85568H24.3592V25.0868ZM6.68902 4.51618V1.35763H19.7144L19.7149 4.51618H6.68902ZM17.5466 5.28788V6.7689H8.85677V5.28788H17.5466ZM1.24044 9.08398V7.5406H25.1629V9.08398C17.226 9.08398 9.19153 9.08398 1.24044 9.08398Z" fill="white"/>
<path d="M3.87413 15.452H7.73259C7.94568 15.452 8.11844 15.2792 8.11844 15.0662V11.2077C8.11844 10.9946 7.94568 10.8219 7.73259 10.8219H3.87413C3.66105 10.8219 3.48828 10.9946 3.48828 11.2077V15.0662C3.48828 15.2792 3.66105 15.452 3.87413 15.452ZM4.25997 11.5935H7.34675V14.6803H4.25997V11.5935ZM18.6682 15.452H22.5266C22.7397 15.452 22.9125 15.2792 22.9125 15.0662V11.2077C22.9125 10.9946 22.7397 10.8219 22.5266 10.8219H18.6682C18.4551 10.8219 18.2823 10.9946 18.2823 11.2077V15.0662C18.2823 15.2792 18.4551 15.452 18.6682 15.452ZM19.054 11.5935H22.1408V14.6803H19.054V11.5935ZM10.8853 15.452H15.5155C15.7285 15.452 15.9013 15.2792 15.9013 15.0662V11.2077C15.9013 10.9946 15.7285 10.8219 15.5155 10.8219H10.8853C10.6722 10.8219 10.4995 10.9946 10.4995 11.2077V15.0662C10.4995 15.2792 10.6722 15.452 10.8853 15.452ZM11.2712 11.5935H15.1296V14.6803H11.2712V11.5935ZM3.87413 21.2397H7.73259C7.94568 21.2397 8.11844 21.0669 8.11844 20.8539V16.9954C8.11844 16.7823 7.94568 16.6096 7.73259 16.6096H3.87413C3.66105 16.6096 3.48828 16.7823 3.48828 16.9954V20.8539C3.48828 21.0669 3.66105 21.2397 3.87413 21.2397ZM4.25997 17.3812H7.34675V20.468H4.25997V17.3812ZM18.6682 21.2397H22.5266C22.7397 21.2397 22.9125 21.0669 22.9125 20.8539V16.9954C22.9125 16.7823 22.7397 16.6096 22.5266 16.6096H18.6682C18.4551 16.6096 18.2823 16.7823 18.2823 16.9954V20.8539C18.2823 21.0669 18.4551 21.2397 18.6682 21.2397ZM19.054 17.3812H22.1408V20.468H19.054V17.3812ZM9.41003 2.11101H8.83446V3.78738H9.11746V3.29577H9.41481C9.85722 3.29577 10.1415 3.15244 10.1415 2.70822C10.1415 2.25634 9.85828 2.11101 9.41003 2.11101ZM9.44604 3.03912H9.11746V2.36763H9.40525C9.66774 2.36763 9.85129 2.42481 9.85129 2.68537C9.85129 2.95571 9.7163 3.03912 9.44604 3.03912ZM11.2495 2.07031C10.7552 2.07031 10.3669 2.43322 10.3669 2.93724C10.3669 3.44009 10.7541 3.80417 11.2495 3.80417C11.7454 3.80417 12.132 3.43938 12.132 2.93724C12.132 2.4344 11.745 2.07031 11.2495 2.07031ZM11.2495 3.54519C10.9107 3.54519 10.6572 3.2722 10.6572 2.93724C10.6572 2.60314 10.9096 2.32929 11.2495 2.32929C11.5889 2.32929 11.8418 2.60292 11.8418 2.93724C11.8418 3.27267 11.5876 3.54519 11.2495 3.54519Z" fill="white"/>
<path d="M12.7715 2.11328H12.4883V3.78978H13.5366V3.52085H12.7715V2.11328Z" fill="white"/>
<path d="M14.1266 2.11328H13.8438V3.78978H14.1266V2.11328Z" fill="white"/>
<path d="M15.3789 2.34842C15.5793 2.34842 15.7045 2.40922 15.8561 2.55472L16.0361 2.35807C15.8618 2.16623 15.6448 2.07031 15.3849 2.07031C14.8563 2.07031 14.4844 2.44803 14.4844 2.9432C14.4844 3.45405 14.8665 3.80662 15.3658 3.80662C15.6191 3.80662 15.8346 3.70825 16.0121 3.51161L15.8298 3.32455C15.6572 3.48632 15.5291 3.53076 15.3574 3.53076C15.0546 3.53076 14.7794 3.28715 14.7794 2.93246C14.7794 2.58083 15.0486 2.34842 15.3789 2.34842Z" fill="white"/>
<path d="M16.6422 3.07481H17.4459V2.82324H16.6422V2.37952H17.537V2.11328H16.3594V3.78978H17.5655V3.52355H16.6422V3.07481Z" fill="white"/>
</g>
<defs>
<clipPath id="clip0_300_1704">
<rect width="26.2376" height="26.2376" fill="white" transform="translate(0.0820312 0.105469)"/>
</clipPath>
</defs>
</svg>
