<svg width="115" height="95" viewBox="0 0 115 95" fill="none" xmlns="http://www.w3.org/2000/svg">
<rect width="115" height="95" fill="#DADADA"/>
<path d="M41.6587 45H40.7017L36.8101 39.0039H36.771C36.7808 39.1634 36.7922 39.3457 36.8052 39.5508C36.8182 39.7526 36.828 39.9691 36.8345 40.2002C36.8443 40.4281 36.8491 40.6608 36.8491 40.8984V45H36.0777V37.8613H37.0298L40.9068 43.8379H40.9409C40.9344 43.724 40.9263 43.5628 40.9165 43.3545C40.9068 43.1429 40.897 42.9167 40.8872 42.6758C40.8807 42.4316 40.8775 42.2054 40.8775 41.9971V37.8613H41.6587V45ZM48.0991 42.3145C48.0991 42.7539 48.0422 43.1462 47.9282 43.4912C47.8143 43.8363 47.6499 44.1276 47.4351 44.3652C47.2202 44.6029 46.9598 44.7852 46.6538 44.9121C46.3511 45.0358 46.0077 45.0977 45.6236 45.0977C45.2655 45.0977 44.9367 45.0358 44.6372 44.9121C44.341 44.7852 44.0838 44.6029 43.8657 44.3652C43.6509 44.1276 43.4833 43.8363 43.3628 43.4912C43.2456 43.1462 43.187 42.7539 43.187 42.3145C43.187 41.7285 43.2863 41.2305 43.4849 40.8203C43.6835 40.4069 43.9667 40.0928 44.3345 39.8779C44.7056 39.6598 45.1467 39.5508 45.6577 39.5508C46.146 39.5508 46.5725 39.6598 46.937 39.8779C47.3049 40.096 47.5897 40.4118 47.7915 40.8252C47.9966 41.2354 48.0991 41.7318 48.0991 42.3145ZM44.0269 42.3145C44.0269 42.7441 44.0838 43.1169 44.1978 43.4326C44.3117 43.7484 44.4875 43.9925 44.7251 44.165C44.9628 44.3376 45.2687 44.4238 45.6431 44.4238C46.0142 44.4238 46.3185 44.3376 46.5562 44.165C46.7971 43.9925 46.9745 43.7484 47.0884 43.4326C47.2023 43.1169 47.2593 42.7441 47.2593 42.3145C47.2593 41.888 47.2023 41.5202 47.0884 41.2109C46.9745 40.8984 46.7987 40.6576 46.5611 40.4883C46.3234 40.319 46.0158 40.2344 45.6382 40.2344C45.0816 40.2344 44.673 40.4183 44.4126 40.7861C44.1555 41.154 44.0269 41.6634 44.0269 42.3145ZM52.2202 45V37.8613H53.0503V45H52.2202ZM60.7017 39.5508C61.2909 39.5508 61.7352 39.7054 62.0347 40.0146C62.3342 40.3206 62.4839 40.8138 62.4839 41.4941V45H61.6831V41.5332C61.6831 41.1003 61.5887 40.7764 61.3999 40.5615C61.2144 40.3434 60.9377 40.2344 60.5698 40.2344C60.0523 40.2344 59.6763 40.3841 59.4419 40.6836C59.2075 40.9831 59.0904 41.4242 59.0904 42.0068V45H58.2847V41.5332C58.2847 41.2435 58.2424 41.0026 58.1577 40.8105C58.0764 40.6185 57.9527 40.4753 57.7866 40.3809C57.6239 40.2832 57.4172 40.2344 57.1665 40.2344C56.8117 40.2344 56.5269 40.3076 56.312 40.4541C56.0972 40.6006 55.9409 40.8187 55.8433 41.1084C55.7489 41.3949 55.7017 41.748 55.7017 42.168V45H54.8911V39.6484H55.5454L55.6675 40.4053H55.7115C55.8189 40.2197 55.954 40.0635 56.1167 39.9365C56.2795 39.8096 56.4618 39.7135 56.6636 39.6484C56.8654 39.5833 57.0803 39.5508 57.3081 39.5508C57.715 39.5508 58.0552 39.6273 58.3286 39.7803C58.6053 39.93 58.8055 40.1595 58.9292 40.4688H58.9732C59.149 40.1595 59.3898 39.93 59.6958 39.7803C60.0018 39.6273 60.3371 39.5508 60.7017 39.5508ZM66.1509 39.5605C66.7889 39.5605 67.2626 39.7038 67.5718 39.9902C67.881 40.2767 68.0357 40.734 68.0357 41.3623V45H67.4448L67.2886 44.209H67.2495C67.0998 44.4043 66.9435 44.5687 66.7808 44.7021C66.618 44.8324 66.4292 44.9316 66.2144 45C66.0028 45.0651 65.7424 45.0977 65.4331 45.0977C65.1076 45.0977 64.8179 45.0407 64.564 44.9268C64.3133 44.8128 64.1148 44.6403 63.9683 44.4092C63.8251 44.1781 63.7534 43.8851 63.7534 43.5303C63.7534 42.9964 63.965 42.5863 64.3882 42.2998C64.8114 42.0133 65.4559 41.8571 66.3218 41.8311L67.2447 41.792V41.4648C67.2447 41.0026 67.1454 40.6787 66.9468 40.4932C66.7482 40.3076 66.4683 40.2148 66.107 40.2148C65.827 40.2148 65.5601 40.2555 65.3062 40.3369C65.0523 40.4183 64.8114 40.5143 64.5835 40.625L64.3345 40.0098C64.5754 39.8861 64.8521 39.7803 65.1646 39.6924C65.4771 39.6045 65.8058 39.5605 66.1509 39.5605ZM67.2349 42.3633L66.4195 42.3975C65.7521 42.4235 65.2818 42.5326 65.0083 42.7246C64.7349 42.9167 64.5982 43.1885 64.5982 43.54C64.5982 43.846 64.6909 44.0723 64.8765 44.2188C65.062 44.3652 65.3078 44.4385 65.6138 44.4385C66.0891 44.4385 66.4781 44.3066 66.7808 44.043C67.0835 43.7793 67.2349 43.3838 67.2349 42.8564V42.3633ZM71.1997 47.4023C70.4966 47.4023 69.9546 47.2705 69.5738 47.0068C69.1929 46.7464 69.0025 46.3802 69.0025 45.9082C69.0025 45.5729 69.1083 45.2865 69.3198 45.0488C69.5347 44.8112 69.8309 44.6533 70.2085 44.5752C70.0685 44.5101 69.9481 44.4124 69.8472 44.2822C69.7495 44.152 69.7007 44.0023 69.7007 43.833C69.7007 43.6377 69.7544 43.4668 69.8618 43.3203C69.9725 43.1706 70.1402 43.0273 70.3648 42.8906C70.0848 42.7767 69.857 42.5846 69.6812 42.3145C69.5086 42.041 69.4224 41.7236 69.4224 41.3623C69.4224 40.9782 69.5021 40.651 69.6616 40.3809C69.8211 40.1074 70.0523 39.8991 70.355 39.7559C70.6577 39.6126 71.0239 39.541 71.4536 39.541C71.548 39.541 71.6424 39.5459 71.7368 39.5557C71.8345 39.5622 71.9273 39.5736 72.0152 39.5898C72.1031 39.6029 72.1795 39.6191 72.2447 39.6387H74.0806V40.1611L73.0943 40.2832C73.1919 40.4102 73.2733 40.5632 73.3384 40.7422C73.4035 40.9212 73.4361 41.1198 73.4361 41.3379C73.4361 41.8717 73.2554 42.2965 72.8941 42.6123C72.5327 42.9248 72.0363 43.0811 71.4048 43.0811C71.2551 43.0811 71.1021 43.068 70.9458 43.042C70.7863 43.1299 70.6642 43.2275 70.5796 43.335C70.4982 43.4424 70.4575 43.5661 70.4575 43.7061C70.4575 43.8102 70.4885 43.8932 70.5503 43.9551C70.6154 44.0169 70.7082 44.0625 70.8286 44.0918C70.9491 44.1178 71.0939 44.1309 71.2632 44.1309H72.2056C72.7883 44.1309 73.2342 44.2529 73.5435 44.4971C73.856 44.7412 74.0122 45.0977 74.0122 45.5664C74.0122 46.1589 73.7713 46.613 73.2896 46.9287C72.8078 47.2445 72.1112 47.4023 71.1997 47.4023ZM71.2241 46.7676C71.6669 46.7676 72.0331 46.722 72.3228 46.6309C72.6157 46.543 72.8338 46.4144 72.9771 46.2451C73.1236 46.0791 73.1968 45.8805 73.1968 45.6494C73.1968 45.4346 73.148 45.2718 73.0503 45.1611C72.9527 45.0537 72.8094 44.9821 72.6206 44.9463C72.4318 44.9072 72.2007 44.8877 71.9273 44.8877H70.9995C70.7586 44.8877 70.5487 44.9251 70.3697 45C70.1906 45.0749 70.0523 45.1855 69.9546 45.332C69.8602 45.4785 69.813 45.6608 69.813 45.8789C69.813 46.1686 69.9351 46.3883 70.1792 46.5381C70.4234 46.6911 70.7717 46.7676 71.2241 46.7676ZM71.4341 42.4902C71.8215 42.4902 72.1128 42.3926 72.3081 42.1973C72.5034 42.002 72.6011 41.7171 72.6011 41.3428C72.6011 40.9424 72.5018 40.6429 72.3032 40.4443C72.1047 40.2425 71.8117 40.1416 71.4243 40.1416C71.0532 40.1416 70.7668 40.2458 70.565 40.4541C70.3664 40.6592 70.2671 40.9603 70.2671 41.3574C70.2671 41.722 70.368 42.002 70.5698 42.1973C70.7717 42.3926 71.0598 42.4902 71.4341 42.4902ZM77.1958 39.5508C77.6516 39.5508 78.0422 39.6517 78.3677 39.8535C78.6932 40.0553 78.9422 40.3385 79.1148 40.7031C79.2873 41.0645 79.3736 41.4876 79.3736 41.9727V42.4756H75.6773C75.687 43.1038 75.8433 43.5824 76.146 43.9111C76.4488 44.2399 76.8752 44.4043 77.4253 44.4043C77.7639 44.4043 78.0633 44.3734 78.3238 44.3115C78.5842 44.2497 78.8544 44.1585 79.1343 44.0381V44.751C78.8641 44.8714 78.5956 44.9593 78.3286 45.0146C78.065 45.07 77.7525 45.0977 77.3911 45.0977C76.8768 45.0977 76.4276 44.9935 76.0435 44.7852C75.6626 44.5736 75.3664 44.2643 75.1548 43.8574C74.9432 43.4505 74.8374 42.9525 74.8374 42.3633C74.8374 41.7871 74.9335 41.2891 75.1255 40.8691C75.3208 40.446 75.5943 40.1204 75.9458 39.8926C76.3006 39.6647 76.7173 39.5508 77.1958 39.5508ZM77.1861 40.2148C76.7531 40.2148 76.4081 40.3564 76.1509 40.6396C75.8937 40.9229 75.7407 41.3184 75.6919 41.8262H78.5239C78.5207 41.5072 78.4702 41.2272 78.3726 40.9863C78.2782 40.7422 78.1333 40.5534 77.938 40.4199C77.7427 40.2832 77.492 40.2148 77.1861 40.2148ZM42.0689 59L41.19 56.7344H38.3286L37.4546 59H36.6148L39.4077 51.832H40.1548L42.9282 59H42.0689ZM40.9409 55.9971L40.106 53.7461C40.0865 53.6875 40.0539 53.5915 40.0083 53.458C39.966 53.3245 39.9221 53.1862 39.8765 53.043C39.8309 52.8997 39.7935 52.7842 39.7642 52.6963C39.7316 52.8298 39.6958 52.9632 39.6568 53.0967C39.621 53.2269 39.5851 53.349 39.5493 53.4629C39.5135 53.5736 39.4826 53.668 39.4566 53.7461L38.607 55.9971H40.9409ZM44.9741 59L42.9429 53.6484H43.812L44.9888 56.8857C45.0702 57.1071 45.1532 57.3512 45.2378 57.6182C45.3225 57.8851 45.381 58.0999 45.4136 58.2627H45.4478C45.4868 58.0999 45.5519 57.8851 45.6431 57.6182C45.7342 57.348 45.8172 57.1038 45.8921 56.8857L47.0689 53.6484H47.938L45.9019 59H44.9741ZM50.7993 53.5605C51.4374 53.5605 51.911 53.7038 52.2202 53.9902C52.5295 54.2767 52.6841 54.734 52.6841 55.3623V59H52.0933L51.937 58.209H51.898C51.7482 58.4043 51.592 58.5687 51.4292 58.7021C51.2665 58.8324 51.0777 58.9316 50.8628 59C50.6512 59.0651 50.3908 59.0977 50.0816 59.0977C49.756 59.0977 49.4663 59.0407 49.2124 58.9268C48.9618 58.8128 48.7632 58.6403 48.6167 58.4092C48.4735 58.1781 48.4019 57.8851 48.4019 57.5303C48.4019 56.9964 48.6135 56.5863 49.0366 56.2998C49.4598 56.0133 50.1044 55.8571 50.9702 55.8311L51.8931 55.792V55.4648C51.8931 55.0026 51.7938 54.6787 51.5952 54.4932C51.3967 54.3076 51.1167 54.2148 50.7554 54.2148C50.4754 54.2148 50.2085 54.2555 49.9546 54.3369C49.7007 54.4183 49.4598 54.5143 49.232 54.625L48.9829 54.0098C49.2238 53.8861 49.5005 53.7803 49.813 53.6924C50.1255 53.6045 50.4543 53.5605 50.7993 53.5605ZM51.8833 56.3633L51.0679 56.3975C50.4006 56.4235 49.9302 56.5326 49.6568 56.7246C49.3833 56.9167 49.2466 57.1885 49.2466 57.54C49.2466 57.846 49.3394 58.0723 49.5249 58.2188C49.7105 58.3652 49.9562 58.4385 50.2622 58.4385C50.7375 58.4385 51.1265 58.3066 51.4292 58.043C51.732 57.7793 51.8833 57.3838 51.8833 56.8564V56.3633ZM55.1646 53.6484V59H54.354V53.6484H55.1646ZM54.7691 51.6465C54.9025 51.6465 55.0165 51.6904 55.1109 51.7783C55.2085 51.863 55.2573 51.9964 55.2573 52.1787C55.2573 52.3577 55.2085 52.4912 55.1109 52.5791C55.0165 52.667 54.9025 52.7109 54.7691 52.7109C54.6291 52.7109 54.5119 52.667 54.4175 52.5791C54.3264 52.4912 54.2808 52.3577 54.2808 52.1787C54.2808 51.9964 54.3264 51.863 54.4175 51.7783C54.5119 51.6904 54.6291 51.6465 54.7691 51.6465ZM57.6988 59H56.8833V51.4023H57.6988V59ZM61.4146 53.5605C62.0526 53.5605 62.5262 53.7038 62.8355 53.9902C63.1447 54.2767 63.2993 54.734 63.2993 55.3623V59H62.7085L62.5523 58.209H62.5132C62.3635 58.4043 62.2072 58.5687 62.0445 58.7021C61.8817 58.8324 61.6929 58.9316 61.4781 59C61.2665 59.0651 61.006 59.0977 60.6968 59.0977C60.3713 59.0977 60.0816 59.0407 59.8277 58.9268C59.577 58.8128 59.3784 58.6403 59.232 58.4092C59.0887 58.1781 59.0171 57.8851 59.0171 57.5303C59.0171 56.9964 59.2287 56.5863 59.6519 56.2998C60.0751 56.0133 60.7196 55.8571 61.5855 55.8311L62.5083 55.792V55.4648C62.5083 55.0026 62.409 54.6787 62.2105 54.4932C62.0119 54.3076 61.732 54.2148 61.3706 54.2148C61.0907 54.2148 60.8238 54.2555 60.5698 54.3369C60.3159 54.4183 60.0751 54.5143 59.8472 54.625L59.5982 54.0098C59.8391 53.8861 60.1157 53.7803 60.4282 53.6924C60.7407 53.6045 61.0695 53.5605 61.4146 53.5605ZM62.4986 56.3633L61.6831 56.3975C61.0158 56.4235 60.5454 56.5326 60.272 56.7246C59.9986 56.9167 59.8618 57.1885 59.8618 57.54C59.8618 57.846 59.9546 58.0723 60.1402 58.2188C60.3257 58.3652 60.5715 58.4385 60.8775 58.4385C61.3527 58.4385 61.7417 58.3066 62.0445 58.043C62.3472 57.7793 62.4986 57.3838 62.4986 56.8564V56.3633ZM65.7798 51.4023V53.3018C65.7798 53.5199 65.7733 53.7314 65.7603 53.9365C65.7505 54.1416 65.7424 54.3011 65.7359 54.415H65.7798C65.9263 54.1742 66.1379 53.9707 66.4146 53.8047C66.6913 53.6387 67.0445 53.5557 67.4741 53.5557C68.1447 53.5557 68.6786 53.7884 69.0757 54.2539C69.4761 54.7161 69.6763 55.4046 69.6763 56.3193C69.6763 56.9215 69.5851 57.4294 69.4029 57.8428C69.2206 58.2562 68.9634 58.5687 68.6314 58.7803C68.2993 58.9919 67.9071 59.0977 67.4546 59.0977C67.0314 59.0977 66.6831 59.0195 66.4097 58.8633C66.1395 58.7038 65.9312 58.5101 65.7847 58.2822H65.7212L65.5552 59H64.9693V51.4023H65.7798ZM67.3423 54.2344C66.9549 54.2344 66.6473 54.3109 66.4195 54.4639C66.1916 54.6136 66.0272 54.8415 65.9263 55.1475C65.8286 55.4502 65.7798 55.8343 65.7798 56.2998V56.3438C65.7798 57.0176 65.8921 57.5335 66.1167 57.8916C66.3413 58.2464 66.7499 58.4238 67.3423 58.4238C67.8404 58.4238 68.2131 58.2415 68.4605 57.877C68.7111 57.5124 68.8364 56.9915 68.8364 56.3145C68.8364 55.6243 68.7128 55.1051 68.4654 54.7568C68.2212 54.4085 67.8469 54.2344 67.3423 54.2344ZM71.9077 59H71.0923V51.4023H71.9077V59ZM75.6822 53.5508C76.1379 53.5508 76.5285 53.6517 76.854 53.8535C77.1795 54.0553 77.4286 54.3385 77.6011 54.7031C77.7736 55.0645 77.8599 55.4876 77.8599 55.9727V56.4756H74.1636C74.1734 57.1038 74.3296 57.5824 74.6323 57.9111C74.9351 58.2399 75.3615 58.4043 75.9116 58.4043C76.2502 58.4043 76.5497 58.3734 76.8101 58.3115C77.0705 58.2497 77.3407 58.1585 77.6206 58.0381V58.751C77.3504 58.8714 77.0819 58.9593 76.815 59.0146C76.5513 59.07 76.2388 59.0977 75.8775 59.0977C75.3631 59.0977 74.9139 58.9935 74.5298 58.7852C74.1489 58.5736 73.8527 58.2643 73.6411 57.8574C73.4295 57.4505 73.3238 56.9525 73.3238 56.3633C73.3238 55.7871 73.4198 55.2891 73.6118 54.8691C73.8072 54.446 74.0806 54.1204 74.4322 53.8926C74.787 53.6647 75.2036 53.5508 75.6822 53.5508ZM75.6724 54.2148C75.2394 54.2148 74.8944 54.3564 74.6372 54.6396C74.3801 54.9229 74.2271 55.3184 74.1782 55.8262H77.0103C77.007 55.5072 76.9566 55.2272 76.8589 54.9863C76.7645 54.7422 76.6197 54.5534 76.4243 54.4199C76.229 54.2832 75.9784 54.2148 75.6724 54.2148Z" fill="#717171"/>
</svg>
